<?xml version="1.0" encoding="utf-8" ?><svg xmlns="http://www.w3.org/2000/svg" xmlns:xlink="http://www.w3.org/1999/xlink" width="1024" height="1024" viewBox="0 0 1024 1024" xmlns:c2pa="http://c2pa.org/manifest"><metadata><c2pa:manifest>AAAgRWp1bWIAAAAeanVtZGMycGEAEQAQgAAAqgA4m3EDYzJwYQAAAAxBanVtYgAAAEdqdW1kYzJtYQARABCAAACqADibcQN1cm46YzJwYToyY2Y5YzIxMi1lZTc0LTQ2MzQtYmRhNi0yMzE4MzI3ZGM3MDUAAAAB4mp1bWIAAAApanVtZGMyYXMAEQAQgAAAqgA4m3EDYzJwYS5hc3NlcnRpb25zAAAAAO1qdW1iAAAAQWp1bWRjYm9yABEAEIAAAKoAOJtxE2MycGEuYWN0aW9ucy52MgAAAAAYYzJzaDVqugVZwW/WqmsWMXYzzb4AAACkY2JvcqFnYWN0aW9uc4GjZmFjdGlvbmxjMnBhLmNyZWF0ZWRxZGlnaXRhbFNvdXJjZVR5cGV4Rmh0dHA6Ly9jdi5pcHRjLm9yZy9uZXdzY29kZXMvZGlnaXRhbHNvdXJjZXR5cGUvdHJhaW5lZEFsZ29yaXRobWljTWVkaWFrZGVzY3JpcHRpb252Q3JlYXRlZCBieSBSZWNyYWZ0IEFJLgAAAMRqdW1iAAAAQGp1bWRjYm9yABEAEIAAAKoAOJtxE2MycGEuaGFzaC5kYXRhAAAAABhjMnNoip+QIOKOPPO39LxmTXzv6QAAAHxjYm9ypWpleGNsdXNpb25zgaJlc3RhcnQY22ZsZW5ndGgZEIxkbmFtZW5qdW1iZiBtYW5pZmVzdGNhbGdmc2hhMjU2ZGhhc2hYILj/9fK6sJarLSoWFtmwt4Kdd4saLQRsAOI2Drf8oDilY3BhZEkAAAAAAAAAAAAAAAI0anVtYgAAACdqdW1kYzJjbAARABCAAACqADibcQNjMnBhLmNsYWltLnYyAAAAAgVjYm9ypmppbnN0YW5jZUlEeCx4bXA6aWlkOjRmYjNmNzA0LTc3NTYtNGJhMS1hYTRlLTNjZjYzNWI1YmY1YXRjbGFpbV9nZW5lcmF0b3JfaW5mb6NkbmFtZWpyZWNyYWZ0LmFpZ3ZlcnNpb254KDgxY2U4MmUyYzVjM2NiZmJlOGM2ZmJlMTc5ZDVmOGQ5MWM0MDljZTF3b3JnLmNvbnRlbnRhdXRoLmMycGFfcnNmMC45MC43aXNpZ25hdHVyZXhNc2VsZiNqdW1iZj0vYzJwYS91cm46YzJwYToyY2Y5YzIxMi1lZTc0LTQ2MzQtYmRhNi0yMzE4MzI3ZGM3MDUvYzJwYS5zaWduYXR1cmVyY3JlYXRlZF9hc3NlcnRpb25zgqJjdXJseCpzZWxmI2p1bWJmPWMycGEuYXNzZXJ0aW9ucy9jMnBhLmFjdGlvbnMudjJkaGFzaFggEUWehnnVonctSXKGXIaG5UPcN4k1eitIBxfI0Vg3t/2iY3VybHgpc2VsZiNqdW1iZj1jMnBhLmFzc2VydGlvbnMvYzJwYS5oYXNoLmRhdGFkaGFzaFggqFP5Q8u9zg3R8+n/ITn4154PBEYpLG3qJqA0ORchsSNoZGM6dGl0bGV4GlJlY3JhZnQgQUkgR2VuZXJhdGVkIEltYWdlY2FsZ2ZzaGEyNTYAAAfcanVtYgAAAChqdW1kYzJjcwARABCAAACqADibcQNjMnBhLnNpZ25hdHVyZQAAAAesY2JvctKEWQOwogEmGCGCWQHnMIIB4zCCAYmgAwIBAgIJALfeWmNDUW56MAoGCCqGSM49BAMCMEAxHzAdBgNVBAMMFlJlY3JhZnQgU3RhZ2luZyBEZXYgQ0ExEDAOBgNVBAoMB1JlY3JhZnQxCzAJBgNVBAYTAlVTMB4XDTI2MDYxMjE5NDM1MFoXDTI3MDYxMjE5NDM1MFowNzELMAkGA1UEBhMCVVMxEzARBgNVBAoTClJlY3JhZnQgQUkxEzARBgNVBAMTCnJlY3JhZnQuYWkwWTATBgcqhkjOPQIBBggqhkjOPQMBBwNCAARKaTVbACsg/DeG3LeOxYdID/VA6EFG73E6Oknb+KIiCFJygRUz4ueN2z/t2qYb6CIUvS8RvgOiiClfoqsYtw81o3UwczAMBgNVHRMBAf8EAjAAMA4GA1UdDwEB/wQEAwIGwDATBgNVHSUEDDAKBggrBgEFBQcDBDAdBgNVHQ4EFgQULzHpBen96SL1y4IPHa8MkMshXf0wHwYDVR0jBBgwFoAUAgsqOBrKqpdK//m/kxZo7ZR4ebcwCgYIKoZIzj0EAwIDSAAwRQIgU8hKW0aXvvk8SQgVFNkax69Ym9ae8GsT2RZTQw+B51ACIQC0D4BkEoRD4N0r2ZRkNy0HZaW3WICy/QZGN95ilF4yzFkBvTCCAbkwggFfoAMCAQICCQCc+Wg7T6ATbzAKBggqhkjOPQQDAjBAMR8wHQYDVQQDDBZSZWNyYWZ0IFN0YWdpbmcgRGV2IENBMRAwDgYDVQQKDAdSZWNyYWZ0MQswCQYDVQQGEwJVUzAeFw0yNjA2MTIxOTQwMTZaFw0yODA2MTExOTQwMTZaMEAxHzAdBgNVBAMMFlJlY3JhZnQgU3RhZ2luZyBEZXYgQ0ExEDAOBgNVBAoMB1JlY3JhZnQxCzAJBgNVBAYTAlVTMFkwEwYHKoZIzj0CAQYIKoZIzj0DAQcDQgAEQ9IQBlcVbKaKPYrQSfOhL/00s7xUDC7RinIuLO/I1k99y9yh6oWF9kPxaP+tx1v1PeOL3yrVquJ730H0ZGiDyqNCMEAwDwYDVR0TAQH/BAUwAwEB/zAOBgNVHQ8BAf8EBAMCAYYwHQYDVR0OBBYEFAILKjgayqqXSv/5v5MWaO2UeHm3MAoGCCqGSM49BAMCA0gAMEUCIFQwNImLlYDeQhjgF+ZiqTbgcuzSqmOJw3Q2lQ/hu83FAiEA9O8cLm/xfoVLqB4jtdbuHzi3WL+p2RN+DRGkwpYswVuhY3BhZFkDpAAAAAAAAAAAAAAAAAAAAAAAAAAAAAAAAAAAAAAAAAAAAAAAAAAAAAAAAAAAAAAAAAAAAAAAAAAAAAAAAAAAAAAAAAAAAAAAAAAAAAAAAAAAAAAAAAAAAAAAAAAAAAAAAAAAAAAAAAAAAAAAAAAAAAAAAAAAAAAAAAAAAAAAAAAAAAAAAAAAAAAAAAAAAAAAAAAAAAAAAAAAAAAAAAAAAAAAAAAAAAAAAAAAAAAAAAAAAAAAAAAAAAAAAAAAAAAAAAAAAAAAAAAAAAAAAAAAAAAAAAAAAAAAAAAAAAAAAAAAAAAAAAAAAAAAAAAAAAAAAAAAAAAAAAAAAAAAAAAAAAAAAAAAAAAAAAAAAAAAAAAAAAAAAAAAAAAAAAAAAAAAAAAAAAAAAAAAAAAAAAAAAAAAAAAAAAAAAAAAAAAAAAAAAAAAAAAAAAAAAAAAAAAAAAAAAAAAAAAAAAAAAAAAAAAAAAAAAAAAAAAAAAAAAAAAAAAAAAAAAAAAAAAAAAAAAAAAAAAAAAAAAAAAAAAAAAAAAAAAAAAAAAAAAAAAAAAAAAAAAAAAAAAAAAAAAAAAAAAAAAAAAAAAAAAAAAAAAAAAAAAAAAAAAAAAAAAAAAAAAAAAAAAAAAAAAAAAAAAAAAAAAAAAAAAAAAAAAAAAAAAAAAAAAAAAAAAAAAAAAAAAAAAAAAAAAAAAAAAAAAAAAAAAAAAAAAAAAAAAAAAAAAAAAAAAAAAAAAAAAAAAAAAAAAAAAAAAAAAAAAAAAAAAAAAAAAAAAAAAAAAAAAAAAAAAAAAAAAAAAAAAAAAAAAAAAAAAAAAAAAAAAAAAAAAAAAAAAAAAAAAAAAAAAAAAAAAAAAAAAAAAAAAAAAAAAAAAAAAAAAAAAAAAAAAAAAAAAAAAAAAAAAAAAAAAAAAAAAAAAAAAAAAAAAAAAAAAAAAAAAAAAAAAAAAAAAAAAAAAAAAAAAAAAAAAAAAAAAAAAAAAAAAAAAAAAAAAAAAAAAAAAAAAAAAAAAAAAAAAAAAAAAAAAAAAAAAAAAAAAAAAAAAAAAAAAAAAAAAAAAAAAAAAAAAAAAAAAAAAAAAAAAAAAAAAAAAAAAAAAAAAAAAAAAAAAAAAAAAAAAAAAAAAAAAAAAAAAAAAAAAAAAAAAAAAAAAAAAAAAAAAAAAAAAAAAAAAAAAAAAAAAAAAAAAAAAAAAAAAAAAAAAAAAAAAAAAAAAAAAAAAAAAAAAAAAAAAAAAAAAAA9lhALEH3Ea0YhhCtnZXATmtrJFqN9oz4Ms+IJeUw4Zi6VG8Jyp5V7MDTPejjfV16gl0L9ROw3plEn4lL03K141ZAcwAAE95qdW1iAAAAR2p1bWRjMm1hABEAEIAAAKoAOJtxA3VybjpjMnBhOjYwZjcyYWRhLTU4NjktNGY3YS1iNDBmLWZjNmVlMWQ1MjM5YwAAAAkdanVtYgAAAClqdW1kYzJhcwARABCAAACqADibcQNjMnBhLmFzc2VydGlvbnMAAAAGOmp1bWIAAABEanVtZGNib3IAEQAQgAAAqgA4m3ETYzJwYS5pbmdyZWRpZW50LnYzAAAAABhjMnNotoeLODzAzsiyXEZv6UpeWAAABe5jYm9yp2xyZWxhdGlvbnNoaXBocGFyZW50T2ZoZGM6dGl0bGVmc291cmNlaWRjOmZvcm1hdG1pbWFnZS9zdmcreG1scXZhbGlkYXRpb25SZXN1bHRzoW5hY3RpdmVNYW5pZmVzdKNnc3VjY2Vzc4WjZGNvZGV4HWNsYWltU2lnbmF0dXJlLmluc2lkZVZhbGlkaXR5Y3VybHhNc2VsZiNqdW1iZj0vYzJwYS91cm46YzJwYToyY2Y5YzIxMi1lZTc0LTQ2MzQtYmRhNi0yMzE4MzI3ZGM3MDUvYzJwYS5zaWduYXR1cmVrZXhwbGFuYXRpb251Y2xhaW0gc2lnbmF0dXJlIHZhbGlko2Rjb2RleBhjbGFpbVNpZ25hdHVyZS52YWxpZGF0ZWRjdXJseE1zZWxmI2p1bWJmPS9jMnBhL3VybjpjMnBhOjJjZjljMjEyLWVlNzQtNDYzNC1iZGE2LTIzMTgzMjdkYzcwNS9jMnBhLnNpZ25hdHVyZWtleHBsYW5hdGlvbnVjbGFpbSBzaWduYXR1cmUgdmFsaWSjZGNvZGV4GWFzc2VydGlvbi5oYXNoZWRVUkkubWF0Y2hjdXJseF5zZWxmI2p1bWJmPS9jMnBhL3VybjpjMnBhOjJjZjljMjEyLWVlNzQtNDYzNC1iZGE2LTIzMTgzMjdkYzcwNS9jMnBhLmFzc2VydGlvbnMvYzJwYS5hY3Rpb25zLnYya2V4cGxhbmF0aW9ueD5oYXNoZWQgdXJpIG1hdGNoZWQ6IHNlbGYjanVtYmY9YzJwYS5hc3NlcnRpb25zL2MycGEuYWN0aW9ucy52MqNkY29kZXgZYXNzZXJ0aW9uLmhhc2hlZFVSSS5tYXRjaGN1cmx4XXNlbGYjanVtYmY9L2MycGEvdXJuOmMycGE6MmNmOWMyMTItZWU3NC00NjM0LWJkYTYtMjMxODMyN2RjNzA1L2MycGEuYXNzZXJ0aW9ucy9jMnBhLmhhc2guZGF0YWtleHBsYW5hdGlvbng9aGFzaGVkIHVyaSBtYXRjaGVkOiBzZWxmI2p1bWJmPWMycGEuYXNzZXJ0aW9ucy9jMnBhLmhhc2guZGF0YaNkY29kZXgYYXNzZXJ0aW9uLmRhdGFIYXNoLm1hdGNoY3VybHhdc2VsZiNqdW1iZj0vYzJwYS91cm46YzJwYToyY2Y5YzIxMi1lZTc0LTQ2MzQtYmRhNi0yMzE4MzI3ZGM3MDUvYzJwYS5hc3NlcnRpb25zL2MycGEuaGFzaC5kYXRha2V4cGxhbmF0aW9ub2RhdGEgaGFzaCB2YWxpZG1pbmZvcm1hdGlvbmFsgGdmYWlsdXJlgaNkY29kZXgbc2lnbmluZ0NyZWRlbnRpYWwudW50cnVzdGVkY3VybHhNc2VsZiNqdW1iZj0vYzJwYS91cm46YzJwYToyY2Y5YzIxMi1lZTc0LTQ2MzQtYmRhNi0yMzE4MzI3ZGM3MDUvYzJwYS5zaWduYXR1cmVrZXhwbGFuYXRpb254HXNpZ25pbmcgY2VydGlmaWNhdGUgdW50cnVzdGVkamluc3RhbmNlSUR4LHhtcDppaWQ6ZGVkNjNkZGUtNjYwMC00MjE3LTlhOGEtMWEzODAyNDMxZDQxbmFjdGl2ZU1hbmlmZXN0o2N1cmx4PnNlbGYjanVtYmY9L2MycGEvdXJuOmMycGE6MmNmOWMyMTItZWU3NC00NjM0LWJkYTYtMjMxODMyN2RjNzA1Y2FsZ2ZzaGEyNTZkaGFzaFggOV4O5P9p1flVb70DThMSCWZ6WN4ToQHvb+Ab0cMSIlNuY2xhaW1TaWduYXR1cmWjY3VybHhNc2VsZiNqdW1iZj0vYzJwYS91cm46YzJwYToyY2Y5YzIxMi1lZTc0LTQ2MzQtYmRhNi0yMzE4MzI3ZGM3MDUvYzJwYS5zaWduYXR1cmVjYWxnZnNoYTI1NmRoYXNoWCDKgVyRl9hk37wCKRrY6z0Kp3MFEsRD4WMB+D3ZoF/2AQAAAe5qdW1iAAAAQWp1bWRjYm9yABEAEIAAAKoAOJtxE2MycGEuYWN0aW9ucy52MgAAAAAYYzJzaGstNQUESes5ESt0k0hArmIAAAGlY2JvcqFnYWN0aW9uc4KiZmFjdGlvbmtjMnBhLm9wZW5lZGpwYXJhbWV0ZXJzoWtpbmdyZWRpZW50c4GiY3VybHgtc2VsZiNqdW1iZj1jMnBhLmFzc2VydGlvbnMvYzJwYS5pbmdyZWRpZW50LnYzZGhhc2hYIC6+eBXjK1eRBxvIIyHzU3gvwjxwISll23wXvloG/mC+pGZhY3Rpb25sYzJwYS5jcmVhdGVkanBhcmFtZXRlcnOha2luZ3JlZGllbnRzgaJjdXJseC1zZWxmI2p1bWJmPWMycGEuYXNzZXJ0aW9ucy9jMnBhLmluZ3JlZGllbnQudjNkaGFzaFggLr54FeMrV5EHG8gjIfNTeC/CPHAhKWXbfBe+Wgb+YL5xZGlnaXRhbFNvdXJjZVR5cGV4QWh0dHA6Ly9jdi5pcHRjLm9yZy9uZXdzY29kZXMvZGlnaXRhbHNvdXJjZXR5cGUvY29tcG9zaXRlU3ludGhldGlja2Rlc2NyaXB0aW9ueB9Db21wb3NlZCBpbiB0aGUgUmVjcmFmdCBlZGl0b3IuAAAAxGp1bWIAAABAanVtZGNib3IAEQAQgAAAqgA4m3ETYzJwYS5oYXNoLmRhdGEAAAAAGGMyc2gon5Jqn0FNg79eD78+ITyYAAAAfGNib3KlamV4Y2x1c2lvbnOBomVzdGFydBjsZmxlbmd0aBkrCGRuYW1lbmp1bWJmIG1hbmlmZXN0Y2FsZ2ZzaGEyNTZkaGFzaFggr5K283T/mNY8utJTwG3Vnb2ae3jI7mTvq5e21+XxsZhjcGFkSQAAAAAAAAAAAAAAApZqdW1iAAAAJ2p1bWRjMmNsABEAEIAAAKoAOJtxA2MycGEuY2xhaW0udjIAAAACZ2Nib3Knamluc3RhbmNlSUR4LHhtcDppaWQ6NTUxMGU4NGYtYzdkYi00YTRiLTkxN2ItZmMyMTZjNjcxMjVkdGNsYWltX2dlbmVyYXRvcl9pbmZvo2RuYW1lanJlY3JhZnQuYWlndmVyc2lvbngoODFjZTgyZTJjNWMzY2JmYmU4YzZmYmUxNzlkNWY4ZDkxYzQwOWNlMXdvcmcuY29udGVudGF1dGguYzJwYV9yc2YwLjkwLjdpc2lnbmF0dXJleE1zZWxmI2p1bWJmPS9jMnBhL3VybjpjMnBhOjYwZjcyYWRhLTU4NjktNGY3YS1iNDBmLWZjNmVlMWQ1MjM5Yy9jMnBhLnNpZ25hdHVyZXJjcmVhdGVkX2Fzc2VydGlvbnOComN1cmx4KnNlbGYjanVtYmY9YzJwYS5hc3NlcnRpb25zL2MycGEuYWN0aW9ucy52MmRoYXNoWCAKDPzk8IoXrb3UPUWZJ7L6bPfyd03BhKwI4uAz5bl4WaJjdXJseClzZWxmI2p1bWJmPWMycGEuYXNzZXJ0aW9ucy9jMnBhLmhhc2guZGF0YWRoYXNoWCC/caixjXjQ7uO3Y4VmF29MryFzx2bK6KFMXXujRqJys3NnYXRoZXJlZF9hc3NlcnRpb25zgaJjdXJseC1zZWxmI2p1bWJmPWMycGEuYXNzZXJ0aW9ucy9jMnBhLmluZ3JlZGllbnQudjNkaGFzaFggLr54FeMrV5EHG8gjIfNTeC/CPHAhKWXbfBe+Wgb+YL5oZGM6dGl0bGVtUmVjcmFmdCBJbWFnZWNhbGdmc2hhMjU2AAAH3Gp1bWIAAAAoanVtZGMyY3MAEQAQgAAAqgA4m3EDYzJwYS5zaWduYXR1cmUAAAAHrGNib3LShFkDsKIBJhghglkB5zCCAeMwggGJoAMCAQICCQC33lpjQ1FuejAKBggqhkjOPQQDAjBAMR8wHQYDVQQDDBZSZWNyYWZ0IFN0YWdpbmcgRGV2IENBMRAwDgYDVQQKDAdSZWNyYWZ0MQswCQYDVQQGEwJVUzAeFw0yNjA2MTIxOTQzNTBaFw0yNzA2MTIxOTQzNTBaMDcxCzAJBgNVBAYTAlVTMRMwEQYDVQQKEwpSZWNyYWZ0IEFJMRMwEQYDVQQDEwpyZWNyYWZ0LmFpMFkwEwYHKoZIzj0CAQYIKoZIzj0DAQcDQgAESmk1WwArIPw3hty3jsWHSA/1QOhBRu9xOjpJ2/iiIghScoEVM+Lnjds/7dqmG+giFL0vEb4DoogpX6KrGLcPNaN1MHMwDAYDVR0TAQH/BAIwADAOBgNVHQ8BAf8EBAMCBsAwEwYDVR0lBAwwCgYIKwYBBQUHAwQwHQYDVR0OBBYEFC8x6QXp/eki9cuCDx2vDJDLIV39MB8GA1UdIwQYMBaAFAILKjgayqqXSv/5v5MWaO2UeHm3MAoGCCqGSM49BAMCA0gAMEUCIFPISltGl775PEkIFRTZGsevWJvWnvBrE9kWU0MPgedQAiEAtA+AZBKEQ+DdK9mUZDctB2Wlt1iAsv0GRjfeYpReMsxZAb0wggG5MIIBX6ADAgECAgkAnPloO0+gE28wCgYIKoZIzj0EAwIwQDEfMB0GA1UEAwwWUmVjcmFmdCBTdGFnaW5nIERldiBDQTEQMA4GA1UECgwHUmVjcmFmdDELMAkGA1UEBhMCVVMwHhcNMjYwNjEyMTk0MDE2WhcNMjgwNjExMTk0MDE2WjBAMR8wHQYDVQQDDBZSZWNyYWZ0IFN0YWdpbmcgRGV2IENBMRAwDgYDVQQKDAdSZWNyYWZ0MQswCQYDVQQGEwJVUzBZMBMGByqGSM49AgEGCCqGSM49AwEHA0IABEPSEAZXFWymij2K0EnzoS/9NLO8VAwu0YpyLizvyNZPfcvcoeqFhfZD8Wj/rcdb9T3ji98q1arie99B9GRog8qjQjBAMA8GA1UdEwEB/wQFMAMBAf8wDgYDVR0PAQH/BAQDAgGGMB0GA1UdDgQWBBQCCyo4Gsqql0r/+b+TFmjtlHh5tzAKBggqhkjOPQQDAgNIADBFAiBUMDSJi5WA3kIY4BfmYqk24HLs0qpjicN0NpUP4bvNxQIhAPTvHC5v8X6FS6geI7XW7h84t1i/qdkTfg0RpMKWLMFboWNwYWRZA6QAAAAAAAAAAAAAAAAAAAAAAAAAAAAAAAAAAAAAAAAAAAAAAAAAAAAAAAAAAAAAAAAAAAAAAAAAAAAAAAAAAAAAAAAAAAAAAAAAAAAAAAAAAAAAAAAAAAAAAAAAAAAAAAAAAAAAAAAAAAAAAAAAAAAAAAAAAAAAAAAAAAAAAAAAAAAAAAAAAAAAAAAAAAAAAAAAAAAAAAAAAAAAAAAAAAAAAAAAAAAAAAAAAAAAAAAAAAAAAAAAAAAAAAAAAAAAAAAAAAAAAAAAAAAAAAAAAAAAAAAAAAAAAAAAAAAAAAAAAAAAAAAAAAAAAAAAAAAAAAAAAAAAAAAAAAAAAAAAAAAAAAAAAAAAAAAAAAAAAAAAAAAAAAAAAAAAAAAAAAAAAAAAAAAAAAAAAAAAAAAAAAAAAAAAAAAAAAAAAAAAAAAAAAAAAAAAAAAAAAAAAAAAAAAAAAAAAAAAAAAAAAAAAAAAAAAAAAAAAAAAAAAAAAAAAAAAAAAAAAAAAAAAAAAAAAAAAAAAAAAAAAAAAAAAAAAAAAAAAAAAAAAAAAAAAAAAAAAAAAAAAAAAAAAAAAAAAAAAAAAAAAAAAAAAAAAAAAAAAAAAAAAAAAAAAAAAAAAAAAAAAAAAAAAAAAAAAAAAAAAAAAAAAAAAAAAAAAAAAAAAAAAAAAAAAAAAAAAAAAAAAAAAAAAAAAAAAAAAAAAAAAAAAAAAAAAAAAAAAAAAAAAAAAAAAAAAAAAAAAAAAAAAAAAAAAAAAAAAAAAAAAAAAAAAAAAAAAAAAAAAAAAAAAAAAAAAAAAAAAAAAAAAAAAAAAAAAAAAAAAAAAAAAAAAAAAAAAAAAAAAAAAAAAAAAAAAAAAAAAAAAAAAAAAAAAAAAAAAAAAAAAAAAAAAAAAAAAAAAAAAAAAAAAAAAAAAAAAAAAAAAAAAAAAAAAAAAAAAAAAAAAAAAAAAAAAAAAAAAAAAAAAAAAAAAAAAAAAAAAAAAAAAAAAAAAAAAAAAAAAAAAAAAAAAAAAAAAAAAAAAAAAAAAAAAAAAAAAAAAAAAAAAAAAAAAAAAAAAAAAAAAAAAAAAAAAAAAAAAAAAAAAAAAAAAAAAAAAAAAAAAAAAAAAAAAAAAAAAAAAAAAAAAAAAAAAAAAAAAAAAAAAAAAAAAAAAAAAAAAAAAAAAAAAAAAAAAAAAAAAAAAAAAAAAAAAAAAAAAAAAAAAAAAAAAAAAAAAAAAAAAAAAAAAAAAAAAAAAAAAAAPZYQJc+TZrJC75VO2bheV5uzaUoDgwEdDbdd8ynmkcvQMy2Zir581f7LMnHyhqGo9t7FfBd8Ox0xxMtYtLG4LMdeUI=</c2pa:manifest></metadata><path fill="#E1B811" d="M505.152 418.693C511.327 417.83 520.356 418.289 526.708 418.298L562.38 418.334L671.021 418.37L789.302 418.518L821.816 418.411C829.204 418.375 837.462 418.001 844.775 419.007C877.881 423.406 906.723 451.776 910.096 485.254C911.149 495.708 910.5 511.844 910.005 522.337C909.383 535.522 894.007 537.138 884.026 536.103C881.249 535.815 876.411 536.049 873.158 536.069L817.318 536.096C809.034 536.096 795.58 535.738 787.656 536.409L786.943 536.472C785.943 560.233 786.498 587.246 786.504 611.25L786.476 736.558L786.44 782.968C786.434 803.342 787.624 818.396 778.352 837.501C766.187 862.564 739.496 881.057 711.508 882.385C697.85 883.033 683.905 882.457 670.278 882.658C626.238 883.053 582.195 883.164 538.153 882.993L435.23 882.956L404.083 882.68C383.435 882.572 372.144 883.784 352.973 874.456C343.654 869.514 335.433 862.734 328.807 854.526C315.808 838.627 311.022 820.684 313.019 800.48C322.418 799.699 342.249 800.286 352.249 800.231L450.646 800.235L579.488 800.048L623.569 800.051C631.266 800.065 640.768 799.827 648.223 800.343C649.825 807.872 651.348 814.159 655.412 820.737C669.399 843.379 698.444 856.62 723.915 845.69C739.681 838.925 748.669 826.666 752.537 810.322C746.305 809.885 740.877 810.313 734.006 809.944C720.865 809.237 702.148 811.252 689.461 808.626C683.183 807.326 681.577 794.347 679.436 788.795C677.625 784.118 674.858 779.869 671.312 776.322C658.368 763.421 643.443 765.817 626.759 765.945L587.248 766.016L429.943 765.933C429.152 758.244 429.722 735.091 429.754 726.632L429.912 648.363L429.889 541.366L429.891 510.204C429.896 502.435 429.66 494.722 430.717 487.006C436.054 448.064 467.492 423.149 505.152 418.693ZM702.086 723.404C710.191 723.526 718.045 724.65 724.48 718.786C734.336 709.805 729.875 691.597 716.284 689.829C710.262 689.079 703.559 689.248 697.374 689.214L667.366 689.161C637.353 689.154 606.877 688.821 576.915 689.24C568.986 689.262 558.452 688.163 552.909 694.324C549.737 697.85 548.168 701.521 548.321 706.26C548.46 711.204 550.553 715.891 554.143 719.294C556.469 721.464 559.342 722.868 562.488 723.089C575.463 723.999 589.402 723.143 602.393 723.397C635.419 724.044 669.181 722.88 702.086 723.404ZM492.1 498.641C482.559 499.615 475.63 508.162 476.649 517.698C477.668 527.234 486.246 534.124 495.778 533.06C505.246 532.004 512.081 523.494 511.069 514.02C510.056 504.547 501.578 497.673 492.1 498.641ZM488.891 689.65C479.724 692.267 474.396 701.802 476.973 710.98C479.55 720.159 489.062 725.527 498.251 722.99C507.498 720.438 512.907 710.855 510.314 701.62C507.721 692.384 498.115 687.017 488.891 689.65ZM829.402 449.197C799.141 452.407 786.104 473.593 786.671 502.44C803.225 502.672 819.781 502.71 836.336 502.556L863.029 502.617C866.874 502.633 873.951 502.951 877.488 502.482C877.297 494.002 877.602 484.783 874.064 476.946C865.933 458.931 849.092 448.178 829.402 449.197ZM489.148 593.621C479.92 596.16 474.486 605.688 477 614.923C479.514 624.159 489.026 629.618 498.269 627.13C507.547 624.633 513.033 615.074 510.51 605.802C507.986 596.531 498.412 591.071 489.148 593.621ZM711.625 532.751C730.725 531.402 735.884 513.668 723.185 502C718.218 497.436 693.789 498.576 686.586 498.556L638.726 498.566L591.94 498.59C583.819 498.577 573.332 498.26 565.432 498.718C555.062 499.746 546.978 506.811 548.385 517.835C549.031 522.692 551.617 527.081 555.552 530.001C561.207 534.137 580.883 532.9 588.345 532.878L631.751 532.663L684.555 532.59C693.225 532.617 703.063 532.973 711.625 532.751ZM619.619 626.996L685.792 627.016C695.384 627.034 704.89 627.558 714.521 626.994C733.693 625.872 734.987 597.179 716.902 593.858C710.542 592.69 701.363 593.214 694.759 593.222L659.234 593.25L592.702 593.337C584.997 593.326 577.288 593.331 569.583 593.282C563.662 593.245 557.786 593.228 553.284 597.759C549.897 601.161 548.1 605.834 548.333 610.63C549.34 631.788 572.17 627.359 586.727 627.127C597.69 627.014 608.655 626.971 619.619 626.996Z"/><path fill="#E1B811" d="M426.013 179.207C437.82 177.976 461.567 180.275 472.939 182.532C515.911 191.365 553.614 216.904 577.759 253.531C605.783 295.7 611.138 340.608 601.28 389.47C592.005 389.739 581.463 389.469 572.089 389.46L506.459 389.221C450.896 389.043 402.61 428.025 396.38 484.727C395.059 496.748 395.695 510.211 395.73 522.375C395.754 536.954 396.246 557.457 395.568 571.671C372.328 558.482 359.921 551.76 339.438 533.485C294.162 492.858 269.711 439.156 263.817 379.422C253.242 272.249 314.037 186.321 426.013 179.207ZM350.836 324.051C358.616 323.51 367.134 321.291 372.473 315.32C378.574 308.499 376.36 299.204 369.265 294.184C362.073 289.096 352.324 287.626 343.763 288.2C337.951 288.706 334.454 289.373 328.925 291.55C316.855 296.302 312.13 309.245 323.655 317.91C331.89 324.102 340.826 324.155 350.836 324.051ZM525.624 323.288C536.209 322.085 551.198 318.421 549.742 304.79C548.354 291.782 527.833 287.002 517.323 288.671C479.19 294.338 489.658 326.035 525.624 323.288ZM442.062 323.345C449.448 321.944 457.029 319.801 461.691 313.424C466.901 306.298 462.954 297.635 456.071 293.466C448.401 288.821 438.944 287.887 430.207 288.641C425.288 289.637 422.086 290.347 417.618 292.556C405.252 298.669 405.144 312.397 416.924 319.237C424.557 323.67 433.504 324.241 442.062 323.345Z"/><path fill="#E1B811" d="M423.312 112.202C557.969 105.183 670.615 211.083 671.136 346.148C671.194 361.069 669.564 375.376 667.817 390.152C657.17 390.047 646.523 390.038 635.876 390.127C635.827 375.244 637.019 359.43 637.009 344.267C637.011 323.292 633.785 302.442 627.444 282.449C611.163 232.449 575.624 190.999 528.696 167.275C479.821 142.527 417.26 138.682 365.471 155.779C315.504 172.126 274.217 207.894 250.915 255.021C193.08 370.037 247.63 518.071 353.927 584.141C362.23 589.296 370.829 593.959 379.679 598.105C384.938 600.559 390.22 602.584 395.433 605.185C395.853 615.158 395.512 627.329 395.485 637.47C365.036 628.281 338.867 614.481 313.248 595.843C299.264 585.433 289.509 575.414 277.475 563.079C276.857 567.92 276.915 573.791 276.351 578.894C275.533 586.293 274.014 592.103 272.249 599.301C305.629 634.864 351.204 650.899 395.344 667.523C395.924 673.777 395.89 693.82 395.591 700.251C338.584 683.885 305.701 668.194 259.023 632.066C254.8 641.06 250.247 647.583 244.786 655.766C249.189 659.653 257.752 665.773 262.626 669.217C291.325 689.403 322.552 705.731 355.505 717.782C368.329 722.397 381.741 725.561 394.567 730.011C394.761 730.094 394.955 730.177 395.148 730.26C395.923 738.586 395.405 755.147 395.39 764.133C335.832 748.625 281.165 725.606 231.765 688.517C222.883 681.848 205.082 673.491 204.006 662.263C203.102 652.824 208.674 648.755 214.285 642.37C238.542 614.649 250.236 578.12 246.585 541.466C244.638 522.586 241.059 515.122 232.675 498.748C211.243 456.892 198.206 417.045 195.24 369.92C191.218 303.803 213.718 238.81 257.76 189.333C302.747 138.482 356.441 116.266 423.312 112.202Z"/></svg>